<svg width="50.000000" height="50.000000" viewBox="0 0 50 50" fill="none" xmlns="http://www.w3.org/2000/svg" xmlns:xlink="http://www.w3.org/1999/xlink">
	<desc>
			Created with Pixso.
	</desc>
	<defs>
		<clipPath id="clip1_56">
			<rect id="Frame" width="36.000000" height="36.000000" transform="translate(6.000000 7.000000)" fill="white" fill-opacity="0"/>
		</clipPath>
	</defs>
	<rect id="Rectangle 12" rx="4.000000" width="50.000000" height="50.000000" fill="#E3E6EE" fill-opacity="1.000000"/>
	<rect id="Frame" width="36.000000" height="36.000000" transform="translate(6.000000 7.000000)" fill="#FFFFFF" fill-opacity="0"/>
	<g clip-path="url(#clip1_56)">
		<path id="Vector" d="M38.4036 14.0611C38.3342 13.7484 38.2162 13.4484 38.0537 13.1723C38.0537 13.1723 34.151 7 23.9992 7C13.8505 7 9.94482 13.1723 9.94482 13.1723C9.80109 13.3989 9.6438 13.7985 9.59415 14.0611C9.59415 14.0611 8.83932 18.0638 10.0886 23.8012C11.2392 29.0757 14.4194 36.6365 23.054 42.6997C23.3309 42.8948 23.6613 42.9996 24 42.9996C24.3387 42.9996 24.6691 42.8948 24.946 42.6997C33.5776 36.6357 36.7593 29.0757 37.9092 23.8012C39.1622 18.0638 38.4036 14.0611 38.4036 14.0611ZM34.5822 23.0757C34.5499 23.227 34.51 23.3851 34.4724 23.5401L23.9992 23.5401L23.9992 39.1741C17.2625 34.0613 14.5789 27.9793 13.5254 23.5401L23.9992 23.5401L23.9992 10.4052C31.2274 10.4052 34.446 14.0446 35.0842 14.8738C35.1895 15.6384 35.5176 18.79 34.5822 23.0757Z" fill="#6276AA" fill-opacity="1.000000" fill-rule="nonzero"/>
	</g>
</svg>
