<svg width="20.000000" height="20.000000" viewBox="0 0 20 20" fill="none" xmlns="http://www.w3.org/2000/svg" xmlns:xlink="http://www.w3.org/1999/xlink">
	<desc>
			Created with Pixso.
	</desc>
	<defs>
		<clipPath id="clip1_188">
			<rect id="ep:arrow-down" width="20.000000" height="20.000000" fill="white" fill-opacity="0"/>
		</clipPath>
	</defs>
	<rect id="ep:arrow-down" width="20.000000" height="20.000000" fill="#FFFFFF" fill-opacity="0"/>
	<g clip-path="url(#clip1_188)">
		<path id="Vector" d="M16.2475 6.65771L10 12.7476L3.75253 6.65771C3.64091 6.54858 3.49107 6.48755 3.33503 6.48755C3.179 6.48755 3.02916 6.54858 2.91753 6.65771C2.86349 6.71069 2.82055 6.77393 2.79124 6.84351C2.76192 6.91333 2.74683 6.98828 2.74683 7.06396C2.74683 7.13965 2.76192 7.21436 2.79124 7.28418C2.82055 7.354 2.86349 7.41724 2.91753 7.47021L9.56379 13.9502C9.6805 14.064 9.83704 14.1277 10 14.1277C10.163 14.1277 10.3196 14.064 10.4363 13.9502L17.0825 7.47144C17.137 7.41846 17.1802 7.35498 17.2098 7.28516C17.2393 7.21509 17.2545 7.13989 17.2545 7.06396C17.2545 6.98804 17.2393 6.91284 17.2098 6.84277C17.1802 6.77271 17.137 6.70947 17.0825 6.65649C16.9709 6.54736 16.8211 6.48633 16.665 6.48633C16.509 6.48633 16.3592 6.54736 16.2475 6.65649L16.2475 6.65771Z" fill="#FDFDFD" fill-opacity="1.000000" fill-rule="nonzero"/>
	</g>
</svg>
