<svg width="50.000000" height="50.000000" viewBox="0 0 50 50" fill="none" xmlns="http://www.w3.org/2000/svg" xmlns:xlink="http://www.w3.org/1999/xlink">
	<desc>
			Created with Pixso.
	</desc>
	<defs>
		<clipPath id="clip1_37">
			<rect id="Frame" width="36.000000" height="36.000000" transform="translate(7.000000 7.000000)" fill="white" fill-opacity="0"/>
		</clipPath>
	</defs>
	<rect id="Rectangle 12" rx="4.000000" width="50.000000" height="50.000000" fill="#E5EEEB" fill-opacity="1.000000"/>
	<rect id="Frame" width="36.000000" height="36.000000" transform="translate(7.000000 7.000000)" fill="#FFFFFF" fill-opacity="0"/>
	<g clip-path="url(#clip1_37)">
		<path id="Vector" d="M19.0345 31.9277L22.678 31.9277L22.678 32.23L19.0345 32.23L19.0345 31.9277ZM35.0395 31.9277L43.0001 31.9277L43.0001 32.23L35.0395 32.23L35.0395 31.9277ZM34.8446 20.8785C35.1761 21.3345 35.4439 21.7347 35.6571 22.0913C35.726 20.9453 35.9243 20.2457 36.1207 19.8439L36.1207 23.0016C36.223 23.2606 36.2964 23.5329 36.3004 23.8195C36.3007 24.0229 36.2609 24.2095 36.1814 24.3774C36.164 24.4151 36.1427 24.4512 36.1207 24.4869L36.1207 30.3886C36.1207 30.6192 36.2123 30.8403 36.3753 31.0034C36.5384 31.1664 36.7595 31.258 36.9901 31.258C37.2206 31.258 37.4418 31.1664 37.6048 31.0034C37.7679 30.8403 37.8594 30.6192 37.8594 30.3886L37.8594 24.0419L38.1852 24.0419L38.1852 30.3886C38.1852 30.6191 38.2768 30.8403 38.4398 31.0032C38.6028 31.1663 38.8239 31.2579 39.0545 31.2579C39.285 31.2579 39.5061 31.1663 39.6691 31.0032C39.8321 30.8403 39.9237 30.6191 39.9237 30.3886L39.9237 23.2884C37.9405 21.1586 36.5848 18.8081 36.2571 18.2166C36.1947 18.2374 36.1292 18.2637 36.0609 18.2982C35.6828 18.4856 35.2751 18.8956 34.9898 19.6227C34.8698 19.9258 34.7665 20.2863 34.6864 20.7173C34.7465 20.7633 34.7997 20.8176 34.8446 20.8785ZM34.5091 23.3365L34.5105 23.3967L34.5426 23.4034C34.5316 23.381 34.5204 23.3588 34.5091 23.3365Z" fill="#45766A" fill-opacity="1.000000" fill-rule="nonzero"/>
		<path id="Vector" d="M37.4385 19.6932C38.046 20.6195 38.8962 21.7997 39.9236 22.9308L39.9236 19.8455C39.9653 19.9308 40.0073 20.0289 40.0488 20.1434C40.2469 20.6927 40.4136 21.594 40.413 23.0005C40.413 23.3882 40.4005 23.8141 40.3732 24.2817C40.3687 24.3583 40.3799 24.435 40.4061 24.5071C40.4324 24.5791 40.4731 24.6451 40.5257 24.7009C40.5784 24.7566 40.6418 24.801 40.7123 24.8314C40.7827 24.8616 40.8586 24.8773 40.9353 24.8771C41.0787 24.877 41.2166 24.822 41.3209 24.7236C41.4251 24.6251 41.4879 24.4906 41.4963 24.3474C41.5231 23.8989 41.537 23.4498 41.5379 23.0005C41.5351 20.8786 41.1963 19.7042 40.7339 18.998C40.5031 18.6476 40.2328 18.4227 39.9832 18.2979C39.7339 18.1725 39.5148 18.1472 39.3903 18.1477L39.3879 18.1478C39.3853 18.1477 39.383 18.147 39.3802 18.147L36.664 18.147C36.6608 18.147 36.6576 18.1479 36.6545 18.1479L36.6539 18.1479C36.603 18.1481 36.5522 18.1518 36.5018 18.1589C36.6579 18.4374 36.9781 18.9915 37.4385 19.6932Z" fill="#45766A" fill-opacity="1.000000" fill-rule="nonzero"/>
		<path id="Vector" d="M39.6039 16.1644C39.6039 17.038 38.8957 17.7463 38.022 17.7463C37.1484 17.7463 36.4402 17.038 36.4402 16.1644C36.4402 15.2908 37.1484 14.5825 38.022 14.5825C38.8957 14.5825 39.6039 15.2908 39.6039 16.1644Z" fill="#45766A" fill-opacity="1.000000" fill-rule="evenodd"/>
		<path id="Vector" d="M11.7654 25.8765L11.7654 40.022C11.7654 40.8483 12.4352 41.5175 13.261 41.5175C14.0869 41.5175 14.7567 40.8483 14.7567 40.022L14.7567 29.1022L15.3174 29.1022L15.3174 40.022C15.3174 40.8483 15.9872 41.5175 16.8129 41.5175C17.6388 41.5175 18.3086 40.8483 18.3086 40.022L18.3086 21.882C18.3893 22.049 18.4612 22.2202 18.5239 22.3947C18.8648 23.3398 19.1516 24.8903 19.1506 27.3106C19.1506 27.9776 19.1291 28.7104 19.0824 29.5152C19.0512 30.0486 19.4585 30.5063 19.9922 30.5377C20.2484 30.5526 20.5001 30.4651 20.6918 30.2946C20.8835 30.124 20.9996 29.8842 21.0146 29.6279C21.0635 28.7892 21.0862 28.0192 21.0862 27.3107C21.0813 23.6595 20.4982 21.639 19.7031 20.4239C19.3056 19.8208 18.8407 19.4339 18.4113 19.2197C17.9951 19.0099 17.6293 18.9636 17.4117 18.9614C17.3992 18.9609 17.3866 18.9595 17.3738 18.9595L16.806 18.9595L16.5086 21.2844L15.3292 19.863L16.1445 18.9595L13.9293 18.9595L14.7446 19.863L13.5652 21.2844L13.2679 18.9595L12.7003 18.9595C12.6641 18.9595 12.6284 18.962 12.5933 18.9661C12.1649 18.972 11.7247 18.9968 11.2983 19.0082C11.1776 19.0114 11.0573 19.0144 10.9397 19.0143C10.249 19.0215 9.65036 18.9236 9.37238 18.7513C9.22855 18.6659 9.15018 18.5878 9.07578 18.4532C9.00391 18.3177 8.93594 18.0978 8.93546 17.7244C8.93472 17.3213 9.02121 16.7485 9.24911 16.0019C9.32379 15.7563 9.29788 15.4912 9.17706 15.2648C9.05627 15.0383 8.85049 14.8691 8.60498 14.7944C8.59845 14.7924 8.59204 14.7914 8.58551 14.7896L8.58551 12.2678C8.84982 11.8437 9.5242 11.0863 10.7023 11.7886C13.8942 13.6913 14.0893 9.24811 14.0893 9.24811C14.0893 9.24811 12.4159 10.1757 11.2062 9.08704C10.1824 8.16559 8.94235 8.68817 8.58539 8.87061L8.58539 8.48218L8.14178 8.48218L8.14178 14.7698C7.96857 14.8028 7.80765 14.8825 7.67642 15.0004C7.54523 15.1182 7.44873 15.2696 7.39737 15.4383C7.13211 16.3127 7.00098 17.058 7 17.7242C6.99951 18.3344 7.11551 18.8884 7.36627 19.3607C7.74152 20.0793 8.40793 20.5098 9.0419 20.7067C9.68362 20.9116 10.3297 20.9474 10.9397 20.9495C10.9731 20.9495 11.0061 20.9488 11.0394 20.9485C11.2897 20.9464 11.5336 20.9385 11.7653 20.9293L11.7654 25.8765Z" fill="#45766A" fill-opacity="1.000000" fill-rule="nonzero"/>
		<path id="Vector" d="M15.4808 18.2337C16.7729 18.0217 17.7586 16.9006 17.7586 15.5486C17.7586 14.0453 16.5402 12.8269 15.0369 12.8269C13.5337 12.8269 12.3151 14.0453 12.3151 15.5486C12.3151 16.9006 13.301 18.0217 14.5929 18.2337C14.7375 18.2574 14.8857 18.2704 15.0369 18.2704C15.188 18.2704 15.3364 18.2576 15.4808 18.2337ZM29.223 24.1174C29.101 22.8997 28.8282 22.1248 28.4883 21.6052C28.2574 21.2548 27.9871 21.0298 27.7376 20.9053C27.4881 20.7797 27.2691 20.7546 27.1444 20.7551L27.1442 20.7551C27.1409 20.7551 27.138 20.7542 27.1348 20.7542L26.6504 20.7542C26.8713 21.6864 26.9292 22.5453 26.9292 23.1876C26.9292 23.5745 26.9084 23.8826 26.8898 24.082L26.8898 25.3736L24.6634 25.3736L24.6634 24.0837C24.6364 23.7858 24.6231 23.4869 24.6237 23.1877C24.6237 22.5453 24.6817 21.6865 24.9027 20.7543L24.4185 20.7543C24.4152 20.7543 24.412 20.7552 24.4089 20.7552L24.4083 20.7552C24.2838 20.7548 24.0645 20.7795 23.8153 20.9055C23.4371 21.0928 23.0295 21.5032 22.7442 22.2299C22.4554 22.9597 22.2615 24.0146 22.2606 25.6078C22.2608 26.0195 22.2737 26.4672 22.3027 26.955C22.3111 27.0981 22.3738 27.2326 22.4781 27.331C22.5823 27.4294 22.7202 27.4843 22.8636 27.4844C22.8747 27.4844 22.8858 27.4839 22.8971 27.4835C23.046 27.4747 23.1853 27.4072 23.2844 27.2957C23.3835 27.1842 23.4343 27.038 23.4256 26.889C23.3997 26.4625 23.3864 26.0352 23.3857 25.6078C23.3831 23.9048 23.6313 22.9498 23.8755 22.4508L23.8755 32.9958C23.8755 33.2264 23.967 33.4475 24.1301 33.6105C24.2931 33.7736 24.5142 33.8651 24.7447 33.8651C24.9753 33.8651 25.1964 33.7736 25.3594 33.6105C25.5224 33.4475 25.614 33.2264 25.614 32.9958L25.614 26.6492L25.9397 26.6492L25.9397 32.9958C25.9397 33.2264 26.0313 33.4476 26.1944 33.6106C26.3574 33.7737 26.5786 33.8652 26.8091 33.8652C27.0397 33.8652 27.2608 33.7737 27.4239 33.6106C27.5869 33.4476 27.6785 33.2264 27.6785 32.9958L27.6785 22.4532C27.7201 22.5385 27.7621 22.6365 27.8035 22.7507C28.0017 23.3002 28.1683 24.2013 28.1678 25.608C28.1678 25.9955 28.1552 26.4215 28.1281 26.8893C28.1163 27.0942 28.2167 27.2781 28.3748 27.3857C28.431 26.3378 28.5879 25.4955 28.8513 24.8296C28.963 24.5435 29.0904 24.3097 29.223 24.1174Z" fill="#45766A" fill-opacity="1.000000" fill-rule="nonzero"/>
		<path id="Vector" d="M24.8345 23.1876C24.8345 23.5101 24.8494 23.7759 24.8651 23.9675L26.688 23.9675C26.7035 23.7759 26.7184 23.5101 26.7184 23.1876C26.7184 22.5465 26.6583 21.6845 26.4326 20.7542L25.1203 20.7542C24.8946 21.6846 24.8345 22.5466 24.8345 23.1876Z" fill="#45766A" fill-opacity="1.000000" fill-rule="nonzero"/>
		<path id="Vector" d="M27.3584 18.7717C27.3584 19.6453 26.6502 20.3536 25.7766 20.3536C24.9029 20.3536 24.1947 19.6453 24.1947 18.7717C24.1947 17.8981 24.9029 17.1898 25.7766 17.1898C26.6502 17.1898 27.3584 17.8981 27.3584 18.7717Z" fill="#45766A" fill-opacity="1.000000" fill-rule="evenodd"/>
		<path id="Vector" d="M26.1704 24.7084C26.1704 24.9268 25.9933 25.1039 25.775 25.1039C25.5565 25.1039 25.3795 24.9268 25.3795 24.7084C25.3795 24.4901 25.5565 24.313 25.775 24.313C25.9933 24.313 26.1704 24.4901 26.1704 24.7084Z" fill="#45766A" fill-opacity="1.000000" fill-rule="evenodd"/>
		<path id="Vector" d="M31.2881 20.6251L33.4501 20.6251C33.1707 20.1773 32.6751 19.8783 32.1082 19.8783C31.2346 19.8783 30.5264 20.5864 30.5264 21.46C30.5264 22.3338 31.2346 23.0421 32.1082 23.0421C32.6971 23.0421 33.2099 22.7195 33.4822 22.2421L31.288 22.2421L31.288 20.6251L31.2881 20.6251Z" fill="#45766A" fill-opacity="1.000000" fill-rule="nonzero"/>
		<path id="Vector" d="M33.0692 21.4335C33.0692 21.673 32.8751 21.8671 32.6357 21.8671C32.3962 21.8671 32.2021 21.673 32.2021 21.4335C32.2021 21.1941 32.3962 21 32.6357 21C32.8751 21 33.0692 21.1941 33.0692 21.4335Z" fill="#45766A" fill-opacity="1.000000" fill-rule="evenodd"/>
		<path id="Vector" d="M36.0585 23.8226C36.0535 23.4619 35.9287 23.1174 35.7053 22.6729C35.4787 22.2309 35.1392 21.6951 34.649 21.0208C34.6056 20.961 34.5508 20.9104 34.4878 20.8718C34.4248 20.8333 34.3548 20.8074 34.2818 20.796C34.2088 20.7844 34.1343 20.7874 34.0625 20.8047C33.9907 20.822 33.9229 20.8533 33.8632 20.8968C33.8035 20.9402 33.7529 20.995 33.7144 21.058C33.6758 21.121 33.6501 21.191 33.6385 21.2639C33.627 21.3369 33.63 21.4114 33.6473 21.4832C33.6646 21.5549 33.6959 21.6226 33.7393 21.6823C34.2077 22.3259 34.519 22.8228 34.704 23.1852C34.8226 23.412 34.8849 23.588 34.9137 23.6986C34.7538 23.6943 34.4969 23.6453 34.2486 23.5864C34.1147 23.5554 33.9812 23.5228 33.8515 23.4961C33.7424 23.4743 33.6398 23.4552 33.5219 23.4482C33.5035 23.4463 33.4854 23.4425 33.4666 23.4425L30.7503 23.4425C30.7471 23.4425 30.7441 23.4435 30.7408 23.4435L30.7402 23.4435C30.6154 23.443 30.3965 23.468 30.1472 23.5938C29.769 23.7813 29.3614 24.1914 29.076 24.9182C28.7874 25.6479 28.5935 26.7031 28.5925 28.296C28.5925 28.708 28.6058 29.1555 28.6345 29.6432C28.6432 29.7921 28.7107 29.9315 28.8222 30.0305C28.9336 30.1296 29.0799 30.1804 29.2288 30.1717C29.3777 30.163 29.517 30.0955 29.6161 29.9841C29.7153 29.8727 29.7661 29.7264 29.7574 29.5775C29.7316 29.1508 29.7183 28.7235 29.7175 28.296C29.7151 26.5933 29.9634 25.6385 30.2072 25.1393L30.2072 35.6841C30.2072 36.1645 30.5964 36.5534 31.0764 36.5534C31.5564 36.5534 31.9457 36.1645 31.9457 35.6841L31.9457 29.3376L32.2714 29.3376L32.2714 35.6841C32.2714 35.9147 32.363 36.1357 32.526 36.2988C32.6891 36.4618 32.9102 36.5534 33.1407 36.5534C33.2549 36.5534 33.3679 36.5309 33.4734 36.4873C33.5789 36.4436 33.6747 36.3796 33.7555 36.2989C33.8362 36.2181 33.9003 36.1223 33.944 36.0168C33.9877 35.9114 34.0102 35.7983 34.0102 35.6841L34.0102 24.6854C34.0766 24.7008 34.1447 24.7162 34.2155 24.7313C34.444 24.7788 34.6875 24.8228 34.9448 24.8239C35.1606 24.8209 35.406 24.7989 35.6582 24.6311C35.7895 24.541 35.8945 24.4177 35.9628 24.2739C36.032 24.1274 36.0587 23.9713 36.0585 23.8226Z" fill="#45766A" fill-opacity="1.000000" fill-rule="nonzero"/>
	</g>
</svg>
