<svg width="30.000000" height="30.000000" viewBox="0 0 30 30" fill="none" xmlns="http://www.w3.org/2000/svg" xmlns:xlink="http://www.w3.org/1999/xlink">
	<desc>
			Created with Pixso.
	</desc>
	<defs>
		<clipPath id="clip1_379">
			<rect id="heroicons-solid:menu-alt-3" width="30.000000" height="30.000000" fill="white" fill-opacity="0"/>
		</clipPath>
	</defs>
	<rect id="heroicons-solid:menu-alt-3" width="30.000000" height="30.000000" fill="#FFFFFF" fill-opacity="0"/>
	<g clip-path="url(#clip1_379)">
		<path id="Vector" d="M4.5 7.5C4.5 7.10229 4.65808 6.7207 4.93933 6.43945C5.2207 6.15796 5.60217 6 6 6L24 6C24.3978 6 24.7793 6.15796 25.0607 6.43945C25.3419 6.7207 25.5 7.10229 25.5 7.5C25.5 7.89771 25.3419 8.2793 25.0607 8.56055C24.7793 8.84204 24.3978 9 24 9L6 9C5.60217 9 5.2207 8.84204 4.93933 8.56055C4.65808 8.2793 4.5 7.89771 4.5 7.5ZM4.5 15C4.5 14.6023 4.65808 14.2207 4.93933 13.9395C5.2207 13.658 5.60217 13.5 6 13.5L24 13.5C24.3978 13.5 24.7793 13.658 25.0607 13.9395C25.3419 14.2207 25.5 14.6023 25.5 15C25.5 15.3977 25.3419 15.7793 25.0607 16.0605C24.7793 16.342 24.3978 16.5 24 16.5L6 16.5C5.60217 16.5 5.2207 16.342 4.93933 16.0605C4.65808 15.7793 4.5 15.3977 4.5 15ZM13.5 22.5C13.5 22.1023 13.6581 21.7207 13.9393 21.4395C14.2207 21.158 14.6022 21 15 21L24 21C24.3978 21 24.7793 21.158 25.0607 21.4395C25.3419 21.7207 25.5 22.1023 25.5 22.5C25.5 22.8977 25.3419 23.2793 25.0607 23.5605C24.7793 23.842 24.3978 24 24 24L15 24C14.6022 24 14.2207 23.842 13.9393 23.5605C13.6581 23.2793 13.5 22.8977 13.5 22.5Z" fill="#FFFFFF" fill-opacity="1.000000" fill-rule="evenodd"/>
	</g>
</svg>
