<svg width="32.000000" height="32.000000" viewBox="0 0 32 32" fill="none" xmlns="http://www.w3.org/2000/svg" xmlns:xlink="http://www.w3.org/1999/xlink">
	<desc>
			Created with Pixso.
	</desc>
	<defs>
		<clipPath id="clip1_148">
			<rect id="mdi:pinterest" width="32.000000" height="32.000000" fill="white" fill-opacity="0"/>
		</clipPath>
	</defs>
	<rect id="mdi:pinterest" width="32.000000" height="32.000000" fill="#FFFFFF" fill-opacity="0"/>
	<g clip-path="url(#clip1_148)">
		<path id="Vector" d="M12.0533 28.7197C13.3333 29.1064 14.6267 29.3333 16 29.3333C19.5362 29.3333 22.9276 27.9285 25.4281 25.428C27.9286 22.9275 29.3333 19.5361 29.3333 15.9998C29.3333 14.2488 28.9884 12.5151 28.3184 10.8975C27.6483 9.27979 26.6662 7.80981 25.4281 6.57178C24.19 5.33374 22.7201 4.35156 21.1024 3.6814C19.4848 3.01147 17.7509 2.6665 16 2.6665C14.249 2.6665 12.5152 3.01147 10.8976 3.6814C9.27988 4.35156 7.81001 5.33374 6.5719 6.57178C4.07141 9.07227 2.66666 12.4636 2.66666 15.9998C2.66666 21.6665 6.22665 26.5332 11.2533 28.4531C11.1333 27.4131 11.0133 25.6931 11.2533 24.5066L12.7867 17.9199C12.7867 17.9199 12.4 17.1465 12.4 15.9199C12.4 14.0798 13.5467 12.7065 14.8533 12.7065C16 12.7065 16.5333 13.5464 16.5333 14.6265C16.5333 15.7732 15.7733 17.4131 15.3867 18.9866C15.16 20.2932 16.08 21.4399 17.4133 21.4399C19.7867 21.4399 21.6267 18.9065 21.6267 15.3333C21.6267 12.1331 19.3333 9.94653 16.04 9.94653C12.28 9.94653 10.0667 12.7466 10.0667 15.6931C10.0667 16.8398 10.44 17.9998 11.0533 18.7598C11.1733 18.8398 11.1733 18.9465 11.1333 19.1465L10.7467 20.5999C10.7467 20.8264 10.6 20.9065 10.3733 20.7466C8.66666 19.9998 7.67999 17.5732 7.67999 15.6133C7.67999 11.3999 10.6667 7.57324 16.4267 7.57324C21.0133 7.57324 24.5867 10.8665 24.5867 15.2397C24.5867 19.8264 21.7467 23.5066 17.68 23.5066C16.3867 23.5066 15.12 22.8132 14.6667 21.9998L13.7733 25.1599C13.4667 26.3064 12.6267 27.8398 12.0533 28.7598L12.0533 28.7197Z" fill="#FFFFFF" fill-opacity="1.000000" fill-rule="nonzero"/>
	</g>
</svg>
