<svg width="50.000000" height="50.000000" viewBox="0 0 50 50" fill="none" xmlns="http://www.w3.org/2000/svg" xmlns:xlink="http://www.w3.org/1999/xlink">
	<desc>
			Created with Pixso.
	</desc>
	<defs>
		<clipPath id="clip1_65">
			<rect id="Frame" width="36.000000" height="36.000000" transform="translate(7.000000 7.000000)" fill="white" fill-opacity="0"/>
		</clipPath>
	</defs>
	<rect id="Rectangle 12" rx="4.000000" width="50.000000" height="50.000000" fill="#F3F1E1" fill-opacity="1.000000"/>
	<rect id="Frame" width="36.000000" height="36.000000" transform="translate(7.000000 7.000000)" fill="#FFFFFF" fill-opacity="0"/>
	<g clip-path="url(#clip1_65)">
		<path id="Vector" d="M33.3006 16.4461L26.0547 11.8351L26.0547 8.05469C26.0547 7.47223 25.5825 7 25 7C24.4175 7 23.9453 7.47223 23.9453 8.05469L23.9453 11.8351L16.6994 16.4461C16.5497 16.5414 16.4265 16.6729 16.3411 16.8284C16.2557 16.9839 16.2109 17.1585 16.2109 17.3359L16.2109 41.9453C16.2109 42.5278 16.6832 43 17.2656 43L32.7344 43C33.3168 43 33.7891 42.5278 33.7891 41.9453L33.7891 17.3359C33.7891 16.9754 33.6049 16.6398 33.3006 16.4461ZM25 24.2969C23.0615 24.2969 21.4844 22.7198 21.4844 20.7812C21.4844 19.21 22.5205 17.8765 23.9453 17.4275L23.9453 18.3203C23.9453 18.9028 24.4175 19.375 25 19.375C25.5825 19.375 26.0547 18.9028 26.0547 18.3203L26.0547 17.4275C27.4795 17.8765 28.5156 19.21 28.5156 20.7812C28.5156 22.7198 26.9385 24.2969 25 24.2969Z" fill="#F2BE22" fill-opacity="1.000000" fill-rule="nonzero"/>
	</g>
</svg>
