<svg width="32.000000" height="32.000000" viewBox="0 0 32 32" fill="none" xmlns="http://www.w3.org/2000/svg" xmlns:xlink="http://www.w3.org/1999/xlink">
	<desc>
			Created with Pixso.
	</desc>
	<defs>
		<clipPath id="clip1_150">
			<rect id="mdi:skype" width="32.000000" height="32.000000" fill="white" fill-opacity="0"/>
		</clipPath>
	</defs>
	<rect id="mdi:skype" width="32.000000" height="32.000000" fill="#FFFFFF" fill-opacity="0"/>
	<g clip-path="url(#clip1_150)">
		<path id="Vector" d="M24 8C26.76 10.72 27.8 14.52 27.1467 18.0667C27.6933 19.0266 28 20.1467 28 21.3333C28 23.1016 27.2976 24.7971 26.0474 26.0474C24.7971 27.2976 23.1014 28 21.3333 28C20.1467 28 19.0267 27.6934 18.0667 27.1467C14.52 27.8 10.72 26.76 8 24C5.24001 21.28 4.2 17.48 4.85333 13.9333C4.30667 12.9734 4 11.8533 4 10.6667C4 8.89844 4.70238 7.20288 5.95262 5.95264C7.20287 4.70239 8.89856 4 10.6667 4C11.8533 4 12.9733 4.30664 13.9333 4.85327C17.48 4.19995 21.28 5.23999 24 8ZM16.0533 22.8799C19.88 22.8799 21.7867 21.04 21.7867 18.5601C21.7867 16.9734 21.04 15.28 18.1467 14.6267L15.4933 14.04C14.48 13.8132 13.3333 13.5066 13.3333 12.5601C13.3333 11.6001 14.1333 10.9333 15.6 10.9333C18.5733 10.9333 18.2933 12.9734 19.7733 12.9734C20.5467 12.9734 21.2133 12.52 21.2133 11.7334C21.2133 9.90674 18.2933 8.53345 15.8133 8.53345C13.1333 8.53345 10.2667 9.67993 10.2667 12.72C10.2667 14.1868 10.7867 15.7466 13.6667 16.4666L17.2533 17.3733C18.3333 17.6399 18.6 18.24 18.6 18.8C18.6 19.7068 17.6933 20.6001 16.0533 20.6001C12.84 20.6001 13.28 18.1333 11.56 18.1333C10.7867 18.1333 10.2267 18.6667 10.2267 19.4268C10.2267 20.9067 12 22.8799 16.0533 22.8799Z" fill="#FFFFFF" fill-opacity="1.000000" fill-rule="nonzero"/>
	</g>
</svg>
