<svg width="32.000000" height="32.000000" viewBox="0 0 32 32" fill="none" xmlns="http://www.w3.org/2000/svg" xmlns:xlink="http://www.w3.org/1999/xlink">
	<desc>
			Created with Pixso.
	</desc>
	<defs>
		<clipPath id="clip1_144">
			<rect id="ic:baseline-telegram" width="32.000000" height="32.000000" fill="white" fill-opacity="0"/>
		</clipPath>
	</defs>
	<rect id="ic:baseline-telegram" width="32.000000" height="32.000000" fill="#FFFFFF" fill-opacity="0"/>
	<g clip-path="url(#clip1_144)">
		<path id="Vector" d="M16 2.6665C8.63998 2.6665 2.66666 8.63989 2.66666 15.9998C2.66666 23.3599 8.63998 29.3333 16 29.3333C23.36 29.3333 29.3333 23.3599 29.3333 15.9998C29.3333 8.63989 23.36 2.6665 16 2.6665ZM22.1866 11.7332C21.9867 13.8398 21.12 18.96 20.68 21.3198C20.4933 22.3198 20.12 22.6531 19.7733 22.6931C19 22.7598 18.4133 22.1865 17.6667 21.6931C16.4933 20.9199 15.8267 20.4399 14.6933 19.6931C13.3733 18.8264 14.2267 18.3464 14.9867 17.5732C15.1866 17.3733 18.6 14.2666 18.6667 13.9866C18.6759 13.9441 18.6747 13.9001 18.6631 13.8582C18.6515 13.8164 18.6298 13.7781 18.6 13.7466C18.52 13.6799 18.4133 13.7065 18.32 13.7197C18.2 13.7466 16.3333 14.9866 12.6933 17.4399C12.16 17.7998 11.68 17.9866 11.2533 17.9731C10.7733 17.96 9.86667 17.7065 9.18665 17.4797C8.34665 17.2131 7.69333 17.0664 7.74664 16.5999C7.77332 16.3599 8.10666 16.1199 8.73334 15.8665C12.6266 14.1731 15.2133 13.0532 16.5067 12.5198C20.2133 10.9731 20.9733 10.7065 21.48 10.7065C21.5867 10.7065 21.84 10.7332 22 10.8665C22.1333 10.9731 22.1733 11.1199 22.1866 11.2266C22.1733 11.3064 22.2 11.5464 22.1866 11.7332Z" fill="#FFFFFF" fill-opacity="1.000000" fill-rule="nonzero"/>
	</g>
</svg>
