<svg width="32.000000" height="32.000000" viewBox="0 0 32 32" fill="none" xmlns="http://www.w3.org/2000/svg" xmlns:xlink="http://www.w3.org/1999/xlink">
	<desc>
			Created with Pixso.
	</desc>
	<defs>
		<clipPath id="clip1_146">
			<rect id="entypo-social:vk-with-circle" width="32.000000" height="32.000000" fill="white" fill-opacity="0"/>
		</clipPath>
	</defs>
	<rect id="entypo-social:vk-with-circle" width="32.000000" height="32.000000" fill="#FFFFFF" fill-opacity="0"/>
	<g clip-path="url(#clip1_146)">
		<path id="Vector" d="M16.36 3C8.98138 3 3 8.98145 3 16.3601C3 23.7385 8.98138 29.72 16.36 29.72C23.7386 29.72 29.72 23.7385 29.72 16.3601C29.72 8.98145 23.7386 3 16.36 3ZM21.498 18.0732C21.498 18.0732 22.6796 19.2393 22.9704 19.7808C22.9788 19.7917 22.9829 19.803 22.9857 19.8086C23.104 20.0076 23.1319 20.1621 23.0734 20.2776C22.976 20.4695 22.642 20.5642 22.5279 20.5725L20.4404 20.5725C20.2956 20.5725 19.9922 20.5349 19.6248 20.2817C19.3423 20.084 19.064 19.7598 18.7926 19.4438C18.3877 18.9736 18.037 18.5671 17.6835 18.5671C17.6386 18.5671 17.5939 18.5742 17.5513 18.5881C17.2841 18.6743 16.9417 19.0557 16.9417 20.0715C16.9417 20.3889 16.6912 20.5713 16.5145 20.5713L15.5584 20.5713C15.2328 20.5713 13.5363 20.457 12.0333 18.8721C10.1935 16.9307 8.53745 13.0366 8.52353 13.0005C8.41916 12.7485 8.63486 12.6135 8.87006 12.6135L10.9784 12.6135C11.2596 12.6135 11.3514 12.7849 11.4154 12.9365C11.4906 13.1133 11.7661 13.8159 12.2184 14.6064C12.9518 15.8953 13.4013 16.4185 13.7617 16.4185C13.8293 16.4177 13.8957 16.4004 13.9552 16.3684C14.4256 16.1067 14.3379 14.4297 14.317 14.0818C14.317 14.0164 14.3156 13.3318 14.0749 13.0034C13.9023 12.7654 13.6087 12.6748 13.4305 12.6414C13.5026 12.542 13.5976 12.4614 13.7075 12.4062C14.0303 12.2449 14.6121 12.2212 15.1896 12.2212L15.5111 12.2212C16.1373 12.2295 16.2988 12.2698 16.5256 12.3269C16.9849 12.437 16.9946 12.7334 16.9543 13.7478C16.9417 14.0359 16.9292 14.3616 16.9292 14.7456C16.9292 14.8291 16.925 14.9182 16.925 15.0129C16.9111 15.5293 16.8944 16.115 17.259 16.3557C17.3066 16.3857 17.3615 16.4016 17.4177 16.4019C17.5443 16.4019 17.9256 16.4019 18.9582 14.6301C19.2767 14.0598 19.5534 13.4673 19.7863 12.8572C19.8072 12.821 19.8684 12.7097 19.9408 12.6665C19.9942 12.6394 20.0534 12.6255 20.1133 12.6262L22.5919 12.6262C22.8619 12.6262 23.047 12.6665 23.0818 12.771C23.143 12.9365 23.0706 13.4417 21.9392 14.9739L21.434 15.6406C20.4084 16.9849 20.4084 17.053 21.498 18.0732Z" fill="#FFFFFF" fill-opacity="1.000000" fill-rule="nonzero"/>
	</g>
</svg>
